<?xml version="1.0" encoding="UTF-8" standalone="no"?>
<!-- Created with Inkscape (http://www.inkscape.org/) -->

<svg
   xmlns:dc="http://purl.org/dc/elements/1.1/"
   xmlns:cc="http://creativecommons.org/ns#"
   xmlns:rdf="http://www.w3.org/1999/02/22-rdf-syntax-ns#"
   xmlns:svg="http://www.w3.org/2000/svg"
   xmlns="http://www.w3.org/2000/svg"
   xmlns:sodipodi="http://sodipodi.sourceforge.net/DTD/sodipodi-0.dtd"
   xmlns:inkscape="http://www.inkscape.org/namespaces/inkscape"
   width="718.12451"
   height="289.85995"
   id="svg2"
   version="1.1"
   inkscape:version="0.48.5 r10040"
   sodipodi:docname="logo.svg"
   inkscape:export-filename="/home/archie/logo.png"
   inkscape:export-xdpi="90"
   inkscape:export-ydpi="90">
  <defs
     id="defs4">
    <linearGradient
       id="linearGradient3802">
      <stop
         style="stop-color:#273873;stop-opacity:1;"
         offset="0"
         id="stop3804" />
      <stop
         id="stop3895"
         offset="0.23618086"
         style="stop-color:#273873;stop-opacity:1;" />
      <stop
         id="stop3891"
         offset="0.23618086"
         style="stop-color:#ed438d;stop-opacity:1;" />
      <stop
         style="stop-color:#ed438d;stop-opacity:1;"
         offset="0.41787004"
         id="stop3897" />
      <stop
         style="stop-color:#662d8a;stop-opacity:1;"
         offset="0.41787004"
         id="stop3893" />
      <stop
         id="stop3899"
         offset="0.60857397"
         style="stop-color:#662d8a;stop-opacity:1;" />
      <stop
         style="stop-color:#273873;stop-opacity:1;"
         offset="0.60857397"
         id="stop3911" />
      <stop
         style="stop-color:#273873;stop-opacity:1;"
         offset="1"
         id="stop3806" />
    </linearGradient>
  </defs>
  <sodipodi:namedview
     id="base"
     pagecolor="#ffffff"
     bordercolor="#666666"
     borderopacity="1.0"
     inkscape:pageopacity="0.0"
     inkscape:pageshadow="2"
     inkscape:zoom="0.35355339"
     inkscape:cx="294.78918"
     inkscape:cy="744.92187"
     inkscape:document-units="px"
     inkscape:current-layer="layer1"
     showgrid="false"
     fit-margin-top="20"
     fit-margin-left="20"
     fit-margin-right="20"
     fit-margin-bottom="20"
     inkscape:window-width="1280"
     inkscape:window-height="981"
     inkscape:window-x="0"
     inkscape:window-y="0"
     inkscape:window-maximized="1" />
  <metadata
     id="metadata7">
    <rdf:RDF>
      <cc:Work
         rdf:about="">
        <dc:format>image/svg+xml</dc:format>
        <dc:type
           rdf:resource="http://purl.org/dc/dcmitype/StillImage" />
        <dc:title></dc:title>
      </cc:Work>
    </rdf:RDF>
  </metadata>
  <g
     inkscape:label="Layer 1"
     inkscape:groupmode="layer"
     id="layer1"
     transform="translate(-62.450148,466.76072)">
    <path
       style="fill:#fee96c;fill-opacity:1;stroke:none"
       d="m 196.5914,-1006.7145 106.42858,0 -68.55656,124.70413 59.27083,0.2959 -163.58628,113.6073 39.30057,-71.4645 -64.28571,-1.4285 z"
       id="path2985"
       inkscape:connector-curvature="0"
       sodipodi:nodetypes="cccccccc" />
    <path
       sodipodi:nodetypes="cccccccc"
       inkscape:connector-curvature="0"
       id="path4143"
       d="m 196.5914,-1006.7145 33.0515,0.1733 -82.38797,150.42893 48.29042,0.2705 -65.39738,87.7346 39.30057,-71.4645 -64.28571,-1.4285 z"
       style="fill:#0093d0;fill-opacity:1;stroke:none" />
    <path
       sodipodi:nodetypes="cccccccc"
       inkscape:connector-curvature="0"
       id="path4145"
       d="m 266.29193,-1005.7044 36.72805,-1.0101 -68.55656,124.70413 59.27083,0.2959 -163.58628,113.6073 106.27829,-102.3459 -47.36565,-0.2389 z"
       style="fill:#ef4135;fill-opacity:1;stroke:none" />
    <path
       style="fill:#0093d0;fill-opacity:1;stroke:none"
       d="m 161.22922,-892.05387 c 1.31219,6.7033 2.93169,13.4121 3.01345,20.2781 -1.66973,4.6862 -1.29195,10.3714 -5.08931,14.0894 -2.62882,2.5362 -6.42298,3.3506 -9.96793,3.3906 -2.75832,-1.4919 -5.27973,-3.682 -7.15393,-6.225 -1.86704,-2.2939 -0.18738,-5.1884 -0.53394,-7.8343 0.16553,-3.2501 -0.55563,-6.7152 1.02376,-9.7217 1.93396,-4.4173 4.97488,-8.3068 8.48172,-11.5794 3.04279,-2.0873 7.12586,-0.4715 10.22618,-2.3977 z"
       id="path4147"
       inkscape:connector-curvature="0" />
    <text
       xml:space="preserve"
       style="font-size:178.33444214px;font-style:normal;font-weight:normal;line-height:125%;letter-spacing:0px;word-spacing:0px;fill:#ffffff;fill-opacity:1;stroke:none;font-family:Sans"
       x="184.3476"
       y="-895.04773"
       id="text3755"
       sodipodi:linespacing="125%"><tspan
         sodipodi:role="line"
         id="tspan3757"
         x="184.3476"
         y="-895.04773"
         style="font-style:normal;font-variant:normal;font-weight:normal;font-stretch:normal;text-align:center;letter-spacing:0px;text-anchor:middle;fill:#ffffff;fill-opacity:1;stroke:none;font-family:Noto Serif;-inkscape-font-specification:Noto Serif"
         dx="0.18928525"
         rotate="28.4 28.4 0">АѢ</tspan></text>
    <flowRoot
       xml:space="preserve"
       id="flowRoot3759"
       style="font-size:40px;font-style:normal;font-weight:normal;line-height:125%;letter-spacing:0px;word-spacing:0px;fill:#000000;fill-opacity:1;stroke:none;font-family:Sans"><flowRegion
         id="flowRegion3761"><rect
           id="rect3763"
           width="107.07617"
           height="130.30968"
           x="97.984795"
           y="428.08792" /></flowRegion><flowPara
         id="flowPara3765"></flowPara></flowRoot>    <text
       xml:space="preserve"
       style="font-size:134.37249756px;font-style:normal;font-weight:normal;line-height:125%;letter-spacing:0px;word-spacing:0px;fill:#000000;fill-opacity:1;stroke:none;font-family:Sans"
       x="338.72433"
       y="-790.06226"
       id="text3790"
       sodipodi:linespacing="125%"><tspan
         sodipodi:role="line"
         x="338.72433"
         y="-790.06226"
         style="font-size:26.87450027px;font-style:normal;font-variant:normal;font-weight:normal;font-stretch:normal;font-family:Open Sans;-inkscape-font-specification:Open Sans"
         id="tspan3798">Разраб слил, анон запилил! </tspan></text>
    <path
       style="font-size:178.33444214px;font-style:normal;font-weight:normal;line-height:125%;letter-spacing:0px;word-spacing:0px;fill:#000000;fill-opacity:1;stroke:none;font-family:Sans"
       d="m 289.56596,-982.21447 -54.37946,100.308 0.009,0 23.27679,-42.9643 8.34375,4.5 c 9.54906,5.1633 15.36779,10.7197 17.4375,16.6563 2.1054,5.9215 0.82242,13.2372 -3.84375,21.9375 l 13.31242,0.062 -36,25 c 6.40183,1.7126 12.31387,2.0158 17.75,0.9062 9.56924,-1.9532 16.9726,-7.7664 22.21875,-17.4687 11.127,-20.5792 2.65956,-38.4667 -25.375,-53.625 l -9.85922,-5.3122 10.89079,-20.0941 6.99968,3.8125 c 5.31066,2.8716 8.47741,5.3634 9.5,7.5 1.02238,2.1368 0.81414,5.4809 -0.65625,10.0313 l -0.625,1.875 7.34375,3.9687 9.40625,-19.1875 -28.09343,-15.1559 3.09406,-5.7033 c 3.78257,-6.9958 9.92034,-8.1856 18.49937,-3.547 l 2.8125,1.5312 3.5625,-6.5937 z m -111.71875,1.75 -85.125,74.3437 c -2.32319,1.9776 -4.32705,3.515 -6,4.6563 -1.62193,1.1688 -3.13492,1.9877 -4.5,2.4375 -1.36511,0.4498 -2.67188,0.5661 -3.93751,0.3437 -1.23803,-0.2734 -2.6243,-0.8279 -4.15625,-1.6562 l -2.96875,-1.625 -3.5625,6.5937 38.28126,20.7188 3.5625,-6.5938 -3.59375,-1.9375 c -3.52352,-1.9051 -5.83273,-3.9606 -6.90625,-6.125 -1.02252,-2.1367 -0.81079,-4.5321 0.625,-7.1875 0.46935,-0.8681 1.14084,-1.8073 2.03125,-2.8437 0.91795,-1.0875 1.94022,-2.1167 3.0625,-3.0938 l 14.875,-13.25 20.65625,11.1875 4.34375,-7.875 -17.71875,-9.5937 26.25,-23.0938 c 2.2444,-1.954 4.27068,-3.7387 6.0625,-5.3437 1.81925,-1.656 3.5067,-3.2466 5.0625,-4.7813 1.5556,-1.5345 3.0078,-3.0434 4.40625,-4.5312 1.47692,-1.5111 2.93334,-3.1163 4.3125,-4.8125 -0.13422,0.4852 -0.27586,0.9763 -0.40625,1.4687 l 8.625,-15.625 z"
       id="text4478"
       inkscape:connector-curvature="0"
       sodipodi:nodetypes="cccccccccccccccccccccccccccccsccccccccccccccccccccccc" />
    <text
       xml:space="preserve"
       style="font-size:155.42475891px;font-style:normal;font-variant:normal;font-weight:300;font-stretch:normal;text-align:start;line-height:125%;letter-spacing:0px;word-spacing:0px;writing-mode:lr-tb;text-anchor:start;fill:#000000;fill-opacity:1;stroke:none;font-family:Open Sans;-inkscape-font-specification:Open Sans Light"
       x="337.56555"
       y="-878.66931"
       id="text4504"
       sodipodi:linespacing="125%"><tspan
         sodipodi:role="line"
         id="tspan4506"
         x="337.56555"
         y="-878.66931"
         style="font-size:155.42475891px;font-style:normal;font-variant:normal;font-weight:300;font-stretch:normal;text-align:start;line-height:125%;writing-mode:lr-tb;text-anchor:start;font-family:Open Sans;-inkscape-font-specification:Open Sans Light">#SPS</tspan></text>
    <text
       xml:space="preserve"
       style="font-size:47.46697998px;font-style:normal;font-weight:normal;line-height:125%;letter-spacing:0px;word-spacing:0px;fill:#000000;fill-opacity:1;stroke:none;font-family:Sans"
       x="339.7438"
       y="-828.74158"
       id="text4510"
       sodipodi:linespacing="125%"><tspan
         sodipodi:role="line"
         id="tspan4512"
         x="339.7438"
         y="-828.74158">SmallPonyScript</tspan></text>
    <path
       style="fill:#fee96c;fill-opacity:1;stroke:none"
       d="m 220.72794,-436.55839 106.42858,0 -53.90936,89.8538 59.27083,0.2959 -178.23348,148.45758 53.94778,-106.31478 -64.28571,-1.4285 z"
       id="path2985-9"
       inkscape:connector-curvature="0"
       sodipodi:nodetypes="cccccccc" />
    <path
       sodipodi:nodetypes="cccccccc"
       inkscape:connector-curvature="0"
       id="path4143-2"
       d="m 220.72794,-436.55839 33.0515,0.1733 -67.78864,115.5813 48.29043,0.2705 -79.99672,122.58218 53.89991,-106.31208 -64.28572,-1.4285 z"
       style="fill:#0093d0;fill-opacity:1;stroke:#000000;stroke-width:2;stroke-linejoin:round;stroke-miterlimit:4;stroke-opacity:1;stroke-dasharray:none" />
    <path
       sodipodi:nodetypes="cccccccc"
       inkscape:connector-curvature="0"
       id="path4145-0"
       d="m 290.7856,-436.61969 36.37092,0.061 -53.87872,89.8331 59.27084,0.2959 -178.26413,148.47828 120.95613,-137.21688 -47.36564,-0.239 z"
       style="opacity:1;fill:#f2603f;fill-opacity:1;stroke:#000000;stroke-width:2;stroke-linejoin:round;stroke-miterlimit:4;stroke-opacity:1;stroke-dasharray:none" />
    <path
       sodipodi:nodetypes="cccccccc"
       inkscape:connector-curvature="0"
       id="path4658"
       d="m 220.72794,-436.55839 106.42858,0 -53.90936,89.8538 59.27083,0.2959 -178.23348,148.45758 53.94778,-106.31478 -64.28571,-1.4285 z"
       style="fill:none;stroke:#000000;stroke-width:2;stroke-linejoin:round;stroke-miterlimit:4;stroke-opacity:1;stroke-dasharray:none" />
    <text
       xml:space="preserve"
       style="font-size:178.33444214px;font-style:normal;font-weight:normal;line-height:125%;letter-spacing:0px;word-spacing:0px;fill:#ffffff;fill-opacity:1;stroke:#000000;stroke-width:2;stroke-linejoin:round;stroke-miterlimit:4;stroke-opacity:1;stroke-dasharray:none;font-family:Sans"
       x="82.745522"
       y="-336.29541"
       id="text3755-3"
       sodipodi:linespacing="125%"><tspan
         sodipodi:role="line"
         id="tspan3757-1"
         x="82.745522"
         y="-336.29541"
         style="font-style:normal;font-variant:normal;font-weight:normal;font-stretch:normal;text-align:start;letter-spacing:7.6500001px;text-anchor:start;fill:#ffffff;fill-opacity:1;stroke:#000000;stroke-width:2;stroke-linejoin:round;stroke-miterlimit:4;stroke-opacity:1;stroke-dasharray:none;font-family:Noto Serif;-inkscape-font-specification:Noto Serif"
         dx="0.70999998"
         rotate="30.700001 30.700001 0">АѢ</tspan></text>
    <text
       xml:space="preserve"
       style="font-size:134.37249756px;font-style:normal;font-weight:normal;line-height:125%;letter-spacing:0px;word-spacing:0px;fill:#000000;fill-opacity:1;stroke:none;font-family:Sans"
       x="363.86087"
       y="-222.64514"
       id="text3790-4"
       sodipodi:linespacing="125%"><tspan
         sodipodi:role="line"
         x="363.86087"
         y="-222.64514"
         style="font-size:26.87450027px;font-style:normal;font-variant:normal;font-weight:normal;font-stretch:normal;font-family:DejaVu Serif;-inkscape-font-specification:DejaVu Serif"
         id="tspan3798-5">Разраб слил, анон запилил! </tspan></text>
    <text
       xml:space="preserve"
       style="font-size:155.42475891px;font-style:normal;font-variant:normal;font-weight:300;font-stretch:normal;text-align:start;line-height:125%;letter-spacing:0px;word-spacing:0px;writing-mode:lr-tb;text-anchor:start;fill:#000000;fill-opacity:1;stroke:none;font-family:Open Sans;-inkscape-font-specification:Open Sans Light"
       x="359.70209"
       y="-311.25214"
       id="text4504-8"
       sodipodi:linespacing="125%"><tspan
         sodipodi:role="line"
         id="tspan4506-0"
         x="359.70209"
         y="-311.25214"
         style="font-size:155.42475891px;font-style:normal;font-variant:normal;font-weight:normal;font-stretch:semi-condensed;text-align:start;line-height:125%;writing-mode:lr-tb;text-anchor:start;font-family:DejaVu Serif;-inkscape-font-specification:DejaVu Serif Semi-Condensed">#SPS</tspan></text>
    <text
       xml:space="preserve"
       style="font-size:51.6329689px;font-style:normal;font-weight:normal;line-height:125%;letter-spacing:0px;word-spacing:0px;fill:#000000;fill-opacity:1;stroke:none;font-family:Sans"
       x="365.56503"
       y="-260.15921"
       id="text4510-3"
       sodipodi:linespacing="125%"><tspan
         sodipodi:role="line"
         id="tspan4512-1"
         x="365.56503"
         y="-260.15921"
         style="font-size:51.6329689px;font-style:normal;font-variant:normal;font-weight:normal;font-stretch:semi-condensed;text-align:start;line-height:125%;writing-mode:lr-tb;text-anchor:start;font-family:DejaVu Serif;-inkscape-font-specification:DejaVu Serif Semi-Condensed">SmallPonyScript</tspan></text>
    <path
       style="font-size:178.33444214px;font-style:normal;font-weight:normal;line-height:125%;letter-spacing:0px;word-spacing:0px;fill:#000000;fill-opacity:1;stroke:#000000;stroke-width:2;stroke-linejoin:round;stroke-miterlimit:4;stroke-opacity:1;stroke-dasharray:none;font-family:Sans"
       d="m 286.38534,-436.65272 -0.0625,0.0937 0.21875,0 z m 30.125,17.875 -10,16.65625 c 4.06028,-6.83839 10.27029,-7.76033 18.65625,-2.78125 l 2.78125,1.625 3.8125,-6.4375 z m -119.46875,1.875 -88.0625,70.84375 c -2.40068,1.88276 -4.43885,3.36432 -6.15625,4.4375 -1.66753,1.10283 -3.211716,1.85536 -4.593746,2.25 -1.38207,0.39464 -2.68182,0.46049 -3.9375,0.1875 -1.22607,-0.3229 -2.59628,-0.92336 -4.09375,-1.8125 l -2.90625,-1.75 -3.84375,6.4375 37.437496,22.25 3.84375,-6.4375 -3.53125,-2.09375 c -3.44423,-2.04502 -5.67046,-4.16934 -6.65625,-6.375 -0.93595,-2.17603 -0.63495,-4.56063 0.90625,-7.15625 0.50381,-0.84857 1.22496,-1.78137 2.15625,-2.78125 0.96085,-1.04979 2.02691,-2.03751 3.1875,-2.96875 l 15.40625,-12.625 27,16.03125 4.53125,-7.75 -24.03125,-14.28125 27.15625,-22.03125 c 2.32101,-1.86243 4.42646,-3.56191 6.28125,-5.09375 1.88423,-1.58165 3.63386,-3.12274 5.25,-4.59375 1.61593,-1.47089 3.13672,-2.9133 4.59375,-4.34375 1.53637,-1.45061 3.02263,-2.98552 4.46875,-4.625 -1.34474,4.19767 -2.55189,8.67371 -3.625,13.4375 -0.72267,3.44957 -1.5026,7.3116 -2.28125,11.15625 l 20.53125,-34.96875 z m 106.15625,20.3125 -29.625,49.91964 0.0312,-0.0446 9.5,-16.03125 8.1875,4.84375 c 6.18707,3.67366 10.70379,7.46246 13.59375,11.34375 l 13.65625,0.0937 c -4.77129,-6.14914 -11.93296,-12.03823 -21.5,-17.71875 l -9.65625,-5.74999 11.62468,-19.59343 6.90657,4.06218 c 5.19114,3.08238 8.25148,5.73027 9.1875,7.90625 0.9358,2.17607 0.58932,5.51229 -1.0625,10 l -0.6875,1.8125 7.1875,4.28125 10.15625,-18.8125 z m 20.03125,57.90625 -17,14.1875 c -0.81652,1.89321 -1.82231,3.83887 -3.03125,5.875 -4.77178,8.03641 -10.12254,12.60495 -16.03125,13.6875 -1.51216,0.28703 -3.08616,0.35884 -4.75,0.25 l -9.15625,7.625 c 8.77401,3.85855 16.79031,5.21378 24.0625,4.03125 9.63992,-1.56767 17.27496,-7.10979 22.90625,-16.59375 6.04661,-10.18376 7.03774,-19.86415 3,-29.0625 z m -152.09375,33.59375 c -0.23113,0.61803 -0.49293,1.21167 -0.8125,1.75 -2.90459,4.89171 -7.42294,5.52041 -13.5625,1.875 l -3.53125,-2.09375 -3.8125,6.4375 42.37946,25.1875 2.05804,-4 1.375,-2.6875 -1.84375,-1.125 c -1.49759,-0.88919 -2.73765,-1.78594 -3.6875,-2.6875 -0.95007,-0.90166 -1.66344,-1.89722 -2.15625,-3 -0.46338,-1.1528 -0.7236,-2.44153 -0.75,-3.875 0.0233,-1.40393 0.21297,-3.07834 0.5625,-5.03125 l 1.9375,-10.34375 z"
       id="text4599"
       inkscape:connector-curvature="0"
       sodipodi:nodetypes="cccccccccccccsccccccccccccccccccccccccccccccccccccccccccccccccccccccccccccccccc" />
    <path
       style="fill:#fee96c;fill-opacity:1;stroke:none"
       d="m 935.8152,-1019.8038 106.4285,0 -53.9093,89.8538 59.2708,0.2959 -178.2335,148.4576 53.9478,-106.3148 -64.2857,-1.4285 z"
       id="path2985-9-2"
       inkscape:connector-curvature="0"
       sodipodi:nodetypes="cccccccc" />
    <path
       sodipodi:nodetypes="cccccccc"
       inkscape:connector-curvature="0"
       id="path4143-2-5"
       d="m 935.8152,-1019.8038 33.0515,0.1733 -67.7887,115.5813 48.2905,0.2705 -79.9968,122.5822 53.8999,-106.3121 -64.2857,-1.4285 z"
       style="fill:#0093d0;fill-opacity:1;stroke:none" />
    <path
       sodipodi:nodetypes="cccccccc"
       inkscape:connector-curvature="0"
       id="path4145-0-8"
       d="m 1005.8728,-1019.8651 36.3709,0.061 -53.8787,89.8332 59.2709,0.2959 -178.2642,148.4782 120.9562,-137.2168 -47.3657,-0.239 z"
       style="opacity:0.81589954;fill:#ef4135;fill-opacity:1;stroke:none" />
    <text
       xml:space="preserve"
       style="font-size:178.33444214px;font-style:normal;font-weight:normal;line-height:125%;letter-spacing:0px;word-spacing:0px;fill:#ffffff;fill-opacity:1;stroke:#000000;stroke-width:2;stroke-linejoin:round;stroke-miterlimit:4;stroke-opacity:1;stroke-dasharray:none;font-family:Sans"
       x="797.83276"
       y="-919.54077"
       id="text3755-3-8"
       sodipodi:linespacing="125%"><tspan
         sodipodi:role="line"
         id="tspan3757-1-6"
         x="797.83276"
         y="-919.54077"
         style="font-style:normal;font-variant:normal;font-weight:normal;font-stretch:normal;text-align:start;letter-spacing:7.6500001px;text-anchor:start;fill:#ffffff;fill-opacity:1;stroke:#000000;stroke-width:2;stroke-linejoin:round;stroke-miterlimit:4;stroke-opacity:1;stroke-dasharray:none;font-family:Noto Serif;-inkscape-font-specification:Noto Serif"
         dx="0.70999998"
         rotate="30.700001 30.700001 0">АѢ</tspan></text>
    <text
       xml:space="preserve"
       style="font-size:134.37249756px;font-style:normal;font-weight:normal;line-height:125%;letter-spacing:0px;word-spacing:0px;fill:#000000;fill-opacity:1;stroke:none;font-family:Sans"
       x="1077.9481"
       y="-803.15161"
       id="text3790-4-4"
       sodipodi:linespacing="125%"><tspan
         sodipodi:role="line"
         x="1077.9481"
         y="-803.15161"
         style="font-size:26.87450027px;font-style:normal;font-variant:normal;font-weight:normal;font-stretch:normal;font-family:Open Sans;-inkscape-font-specification:Open Sans"
         id="tspan3798-5-2">Разраб слил, анон запилил! </tspan></text>
    <text
       xml:space="preserve"
       style="font-size:155.42475891px;font-style:normal;font-variant:normal;font-weight:300;font-stretch:normal;text-align:start;line-height:125%;letter-spacing:0px;word-spacing:0px;writing-mode:lr-tb;text-anchor:start;fill:#000000;fill-opacity:1;stroke:none;font-family:Open Sans;-inkscape-font-specification:Open Sans Light"
       x="1076.7893"
       y="-891.75854"
       id="text4504-8-0"
       sodipodi:linespacing="125%"><tspan
         sodipodi:role="line"
         id="tspan4506-0-1"
         x="1076.7893"
         y="-891.75854"
         style="font-size:155.42475891px;font-style:normal;font-variant:normal;font-weight:300;font-stretch:normal;text-align:start;line-height:125%;writing-mode:lr-tb;text-anchor:start;font-family:Open Sans;-inkscape-font-specification:Open Sans Light">#SPS</tspan></text>
    <text
       xml:space="preserve"
       style="font-size:47.46697998px;font-style:normal;font-weight:normal;line-height:125%;letter-spacing:0px;word-spacing:0px;fill:#000000;fill-opacity:1;stroke:none;font-family:Sans"
       x="1078.9675"
       y="-841.83081"
       id="text4510-3-0"
       sodipodi:linespacing="125%"><tspan
         sodipodi:role="line"
         id="tspan4512-1-1"
         x="1078.9675"
         y="-841.83081">SmallPonyScript</tspan></text>
    <path
       style="font-size:178.33444214px;font-style:normal;font-weight:normal;line-height:125%;letter-spacing:0px;word-spacing:0px;fill:#000000;fill-opacity:1;stroke:#000000;stroke-width:2;stroke-linejoin:round;stroke-miterlimit:4;stroke-opacity:1;stroke-dasharray:none;font-family:Sans"
       d="m 1001.4726,-1019.8981 -0.062,0.094 0.2187,0 z m 30.125,17.875 -10,16.6563 c 4.0603,-6.8384 10.2703,-7.7604 18.6562,-2.7813 l 2.7813,1.625 3.8125,-6.4375 z m -119.4688,1.875 -88.0625,70.8438 c -2.4007,1.8827 -4.4388,3.3643 -6.1562,4.4375 -1.6676,1.1028 -3.2117,1.8553 -4.5938,2.25 -1.382,0.3946 -2.6818,0.4605 -3.9375,0.1875 -1.226,-0.3229 -2.5963,-0.9234 -4.0937,-1.8125 l -2.9063,-1.75 -3.8437,6.4375 37.4375,22.25 3.8437,-6.4375 -3.5312,-2.0938 c -3.4443,-2.045 -5.6705,-4.1693 -6.6563,-6.375 -0.9359,-2.176 -0.6349,-4.5606 0.9063,-7.1562 0.5038,-0.8486 1.2249,-1.7814 2.1562,-2.7813 0.9609,-1.0498 2.0269,-2.0375 3.1875,-2.9687 l 15.4063,-12.625 27,16.0312 4.5312,-7.75 -24.0312,-14.2812 27.1562,-22.0313 c 2.321,-1.8624 4.4265,-3.5619 6.2813,-5.0937 1.8842,-1.5817 3.6338,-3.1228 5.25,-4.5938 1.6159,-1.4709 3.1367,-2.9133 4.5937,-4.3437 1.5364,-1.4507 3.0227,-2.9856 4.4688,-4.625 -1.3448,4.1976 -2.5519,8.6737 -3.625,13.4375 -0.7227,3.4495 -1.5026,7.3116 -2.2813,11.1562 l 20.5313,-34.9687 z m 106.1563,20.3125 -29.625,49.9197 0.031,-0.045 9.5,-16.0313 8.1875,4.8437 c 6.187,3.6737 10.7038,7.4625 13.5937,11.3438 l 13.6563,0.094 c -4.7713,-6.1491 -11.933,-12.0382 -21.5,-17.7188 l -9.6563,-5.7499 11.6247,-19.5935 6.9066,4.0622 c 5.1911,3.0824 8.2515,5.7303 9.1875,7.9063 0.9358,2.176 0.5893,5.5122 -1.0625,10 l -0.6875,1.8125 7.1875,4.2812 10.1562,-18.8125 z m 20.0312,57.9063 -17,14.1875 c -0.8165,1.8932 -1.8223,3.8388 -3.0312,5.875 -4.7718,8.0364 -10.1226,12.6049 -16.0313,13.6875 -1.5121,0.287 -3.0861,0.3588 -4.75,0.25 l -9.1562,7.625 c 8.774,3.8585 16.7903,5.2137 24.0625,4.0312 9.6399,-1.5677 17.2749,-7.1098 22.9062,-16.5937 6.0466,-10.1838 7.0378,-19.8642 3,-29.0625 z m -152.0937,33.5937 c -0.2312,0.618 -0.493,1.2117 -0.8125,1.75 -2.9046,4.8917 -7.423,5.5204 -13.5625,1.875 l -3.5313,-2.0937 -3.8125,6.4375 42.3795,25.1875 2.058,-4 1.375,-2.6875 -1.8437,-1.125 c -1.4976,-0.8892 -2.7377,-1.786 -3.6875,-2.6875 -0.9501,-0.9017 -1.6635,-1.8973 -2.1563,-3 -0.4634,-1.1528 -0.7236,-2.4416 -0.75,-3.875 0.023,-1.404 0.213,-3.0784 0.5625,-5.0313 l 1.9375,-10.3437 z"
       id="text4599-1"
       inkscape:connector-curvature="0"
       sodipodi:nodetypes="cccccccccccccsccccccccccccccccccccccccccccccccccccccccccccccccccccccccccccccccc" />
  </g>
</svg>
